Coordinates
version=1
nRows=6
nColumns=40
inDegrees=yes

Units are S.I. units (second, meters, Newtons, ...)
If the header above contains a line with 'inDegrees', this indicates whether rotational values are in degrees (yes) or radians (no).

endheader
time	pelvis_tilt	pelvis_list	pelvis_rotation	pelvis_tx	pelvis_ty	pelvis_tz	hip_flexion_r	hip_adduction_r	hip_rotation_r	knee_angle_r	knee_angle_r_beta	ankle_angle_r	subtalar_angle_r	mtp_angle_r	hip_flexion_l	hip_adduction_l	hip_rotation_l	knee_angle_l	knee_angle_l_beta	ankle_angle_l	subtalar_angle_l	mtp_angle_l	lumbar_extension	lumbar_bending	lumbar_rotation	arm_flex_r	arm_add_r	arm_rot_r	elbow_flex_r	pro_sup_r	wrist_flex_r	wrist_dev_r	arm_flex_l	arm_add_l	arm_rot_l	elbow_flex_l	pro_sup_l	wrist_flex_l	wrist_dev_l
      5.28500000000000014211	     45.64021618195987883837	     -0.16317257600469758927	   -174.86762636172520046784	      0.38314238442176196120	      0.77181664295639595963	     -0.62339820873647189270	     82.38252570584006662102	    -14.09899423500471726811	     -4.98075923227305406016	     39.39378522263641002610	      0.68755125695849284018	      5.18095947585755212117	      0.00000000000000000000	      0.00000000000000000000	     79.97767493926103554713	     -4.07575243869626202553	     -6.16564665241894083181	     32.46906959021226413142	      0.56669216940837008334	     -2.15110985805440257934	      0.00000000000000000000	      0.00000000000000000000	    -32.45352527301508871460	      3.28071236656933029607	     -1.36016177622899259170	     65.15431711049896534860	    -10.03998135126364132930	     48.73790175218256592871	      0.85930375620025412076	     85.63437618742001689043	      0.00000000000000000000	      0.00000000000000000000	     58.19520866550900706216	     -2.20777002006207867524	     33.42464509402398675775	      0.65272873650842189175	      2.83915870005889159344	      0.00000000000000000000	      0.00000000000000000000
      5.29000000000000003553	     45.51792455789237834551	     -0.09224947647989470423	   -174.80619233932998213277	      0.38292335125766707726	      0.77309760658060655558	     -0.62340611236578769017	     81.93714359079716302858	    -14.10011455131458646406	     -5.14665430140484048138	     38.91119903175810179619	      0.67912853900300851340	      5.06890668850074899154	      0.00000000000000000000	      0.00000000000000000000	     79.62469225682650630915	     -4.00107136519581985112	     -6.09623073562479422804	     32.03656231411112997876	      0.55914349340157309953	     -2.40620822107002751977	      0.00000000000000000000	      0.00000000000000000000	    -32.42725998329457581804	      3.39733881448658481261	     -1.37375559975824779180	     64.97391648464584079647	    -10.07440623482260910748	     49.00881259849882809476	      0.85838104247440860650	     85.73426048838237534255	      0.00000000000000000000	      0.00000000000000000000	     57.97769909136439991926	     -2.19451849390185627087	     33.66920869915630021296	      0.65071689288326883815	      2.82744541494324819197	      0.00000000000000000000	      0.00000000000000000000
      5.29499999999999992895	     45.45806618057072512329	     -0.01349463201605093955	   -174.83565676055107473985	      0.38287303091801905275	      0.77427102811682013694	     -0.62370123200093108284	     81.60212021569520857156	    -14.03045437112585247519	     -5.39485728881290782510	     38.47679885478151362577	      0.67154682564352097263	      4.86022676503274198012	      0.00000000000000000000	      0.00000000000000000000	     79.34214523269621111012	     -4.03840687527410491242	     -6.02458633560482237357	     31.61035967916307143355	      0.55170485414105396860	     -2.61977450495221297899	      0.00000000000000000000	      0.00000000000000000000	    -32.33032508438759577984	      3.45225982873464376510	     -1.33757606077417356971	     64.77656776077300548877	    -10.06770767239534336568	     49.43681995754598546000	      0.85201728549214628128	     85.69414187764920143309	      0.00000000000000000000	      0.00000000000000000000	     57.73452155251059991770	     -2.23328509466059710320	     34.04400854193514192048	      0.65059507210508060737	      2.86136753681171995822	      0.00000000000000000000	      0.00000000000000000000
      5.29999999999999982236	     45.27783860944772698076	      0.21036727722134918039	   -174.79575785470191817694	      0.38254169317109526505	      0.77564559364827101451	     -0.62386139020416675471	     81.06530854121520235367	    -13.97792282535686680944	     -5.79589070815689577643	     38.00593615592155316563	      0.66332872122358810252	      4.71258774365705690457	      0.00000000000000000000	      0.00000000000000000000	     78.96327559907874160672	     -4.05354977016964923564	     -5.82668816451888194052	     31.19244069478461156564	      0.54441079185705909538	     -2.83293855797715954381	      0.00000000000000000000	      0.00000000000000000000	    -32.35551848925386053679	      3.69550680384484486751	     -1.25647520681801494469	     64.56095002114966519002	    -10.09785299421526438834	     49.84482919079019325181	      0.85174698012793725876	     85.71377461243221773657	      0.00000000000000000000	      0.00000000000000000000	     57.46812910454178080499	     -2.22890453677068212102	     34.46805996832838303590	      0.64877536607354480136	      2.82357003467823419740	      0.00000000000000000000	      0.00000000000000000000
      5.30499999999999971578	     45.10035828913955668895	      0.40754510699788060180	   -174.74069400115476469182	      0.38230044809865582067	      0.77691272802966426791	     -0.62405633138594818199	     80.63288472014249919084	    -14.03255251046719642716	     -6.38467331240476987375	     37.71487106188074989177	      0.65824867699494915563	      4.49560955779701121315	      0.00000000000000000000	      0.00000000000000000000	     78.59807724131282213875	     -4.06613344725806147295	     -5.66078249250174803109	     30.80100417853522642986	      0.53757893583597105014	     -3.07759062872035604741	      0.00000000000000000000	      0.00000000000000000000	    -32.36579516233894793231	      3.91472214542868091058	     -1.21631618285362352871	     64.38243697903328666143	    -10.09128862045015395665	     50.03860061294060557202	      0.84131173796728841996	     85.55788514797363575326	      0.00000000000000000000	      0.00000000000000000000	     57.18544150760780553355	     -2.25454199185438408648	     35.14648877691026740422	      0.64700520162917007916	      2.84397492508243754372	      0.00000000000000000000	      0.00000000000000000000
      5.30999999999999960920	     44.95284920069672551790	      0.65021815058904275375	   -174.65491094546823092060	      0.38208025884979096576	      0.77813528079240990021	     -0.62412200466929768083	     80.15067113507434726216	    -14.03730856393706361018	     -6.84434381203115727033	     37.29049306523821627479	      0.65084188368051953955	      4.38667512931293490652	      0.00000000000000000000	      0.00000000000000000000	     78.28537556844185019145	     -4.03708733174693801260	     -5.40168558728294367910	     30.41490284880404004753	      0.53084019638583357370	     -3.31100029776652649005	      0.00000000000000000000	      0.00000000000000000000	    -32.32870148535354815067	      4.20176683918212479085	     -1.16964202204693523690	     64.19730982646169081818	    -10.11956558668591021899	     50.27369409650388831778	      0.83789155713156415750	     85.62067195779526684873	      0.00000000000000000000	      0.00000000000000000000	     56.98373496358645695636	     -2.24355170868720099620	     35.15477340751865398261	      0.64747537145594569186	      2.81646570770849136167	      0.00000000000000000000	      0.00000000000000000000
